<svg width="28" height="28" xmlns="http://www.w3.org/2000/svg">
    <g fill="none" fill-rule="evenodd">
        <g stroke="#000" stroke-linecap="round" stroke-linejoin="round" stroke-width="2">
            <path d="M16.832 7.554 11.168 3.93a1.582 1.582 0 0 0-1.448.017L4.135 7.695a.791.791 0 0 0-.42.699V23.02a.791.791 0 0 0 1.16.7l4.838-3.155c.455-.241 1-.246 1.459-.012l5.531 3.61c.456.232.995.23 1.448-.005l5.708-3.756a.791.791 0 0 0 .427-.702V5.078a.791.791 0 0 0-1.162-.7l-4.846 3.158c-.451.239-.99.245-1.446.018zM17.585 7.72v16.615M10.465 3.763V20.38"/>
        </g>
        <path d="M2 2h24v24H2z"/>
    </g>
</svg>
