<svg xmlns="http://www.w3.org/2000/svg" width="28" height="28" viewBox="0 0 28 28">
    <g fill="none" fill-rule="evenodd">
        <g>
            <g>
                <g>
                    <g>
                        <g fill="#000" fill-rule="nonzero">
                            <path d="M.866 4.036C.33 4.342-.002 4.913 0 5.531v15.898c-.002.602.313 1.161.828 1.473.516.311 1.158.329 1.69.046.023-.012.045-.025.067-.04l4.508-2.948c.121-.08.195-.215.194-.36V.453c0-.16-.087-.306-.228-.38-.14-.075-.31-.065-.442.025L.867 4.035zM9.662.07c-.131-.085-.3-.092-.437-.017C9.086.127 9 .272 9 .429v19.155c0 .145.073.28.194.36l5.143 3.344c.132.085.3.092.439.017.138-.075.224-.22.224-.376V3.786c0-.146-.073-.281-.195-.36L9.662.07zM23.171.454C22.657.139 22.015.12 21.484.407c-.023.011-.046.025-.067.04l-4.508 2.946c-.122.079-.195.214-.195.36v19.15c0 .159.088.305.228.38.141.074.312.065.443-.026l5.736-3.935c.544-.303.88-.877.879-1.5V1.965c.007-.614-.307-1.187-.829-1.511z" transform="translate(-34 -629) translate(0 617) translate(34 12) translate(2 2)"/>
                        </g>
                        <path d="M0 0H28V28H0z" transform="translate(-34 -629) translate(0 617) translate(34 12)"/>
                    </g>
                </g>
            </g>
        </g>
    </g>
</svg>
