<?xml version="1.0" standalone="no"?>
<!DOCTYPE svg PUBLIC "-//W3C//DTD SVG 20010904//EN"
 "http://www.w3.org/TR/2001/REC-SVG-20010904/DTD/svg10.dtd">
<svg version="1.0" xmlns="http://www.w3.org/2000/svg"
 width="84.000000pt" height="87.000000pt" viewBox="0 0 84.000000 87.000000"
 preserveAspectRatio="xMidYMid meet">

<g transform="translate(0.000000,87.000000) scale(0.100000,-0.100000)"
fill="#000000" stroke="none">
<path d="M310 744 c-99 -36 -176 -110 -211 -204 -29 -75 -23 -184 13 -255 24
-47 25 -53 12 -95 -31 -103 -12 -123 86 -91 67 21 71 21 126 5 158 -46 324 35
396 192 34 74 32 189 -4 266 -32 70 -97 136 -163 167 -66 32 -189 39 -255 15z
m194 -51 c50 -14 71 -27 116 -72 63 -63 80 -106 80 -196 0 -80 -17 -129 -64
-182 -74 -84 -188 -114 -311 -81 -35 9 -55 9 -95 -1 -28 -7 -53 -12 -55 -10
-2 2 1 24 7 49 9 42 8 51 -18 100 -34 68 -39 160 -11 232 19 50 97 131 144
149 79 32 126 35 207 12z"/>
<path d="M248 459 c-26 -15 -23 -65 3 -80 34 -18 69 3 69 40 0 42 -36 62 -72
40z"/>
<path d="M387 452 c-22 -24 -21 -45 1 -65 24 -22 45 -21 65 1 22 24 21 45 -1
65 -24 22 -45 21 -65 -1z"/>
<path d="M538 459 c-26 -15 -23 -65 3 -80 34 -18 69 3 69 40 0 42 -36 62 -72
40z"/>
</g>
</svg>
