<?xml version="1.0" standalone="no"?>
<!DOCTYPE svg PUBLIC "-//W3C//DTD SVG 20010904//EN"
 "http://www.w3.org/TR/2001/REC-SVG-20010904/DTD/svg10.dtd">
<svg version="1.0" xmlns="http://www.w3.org/2000/svg"
 width="84.000000pt" height="84.000000pt" viewBox="0 0 84.000000 84.000000"
 preserveAspectRatio="xMidYMid meet">

<g transform="translate(0.000000,84.000000) scale(0.100000,-0.100000)"
fill="#000000" stroke="none">
<path d="M354 750 c-139 -29 -251 -148 -269 -286 -8 -56 13 -157 41 -199 15
-24 15 -30 0 -84 -27 -95 -10 -111 85 -79 57 19 66 20 118 7 123 -30 230 -6
314 71 116 106 144 258 73 398 -63 123 -225 201 -362 172z m-53 -290 c29 -16
26 -67 -5 -81 -34 -16 -66 3 -66 41 0 41 33 60 71 40z m149 -10 c24 -24 24
-29 4 -58 -18 -26 -41 -28 -66 -5 -22 20 -23 41 -1 65 21 23 38 23 63 -2z
m144 4 c9 -8 16 -24 16 -34 0 -20 -25 -50 -41 -50 -27 0 -49 22 -49 50 0 44
44 65 74 34z"/>
</g>
</svg>
