<svg width="28" height="28" xmlns="http://www.w3.org/2000/svg">
    <g fill="none" fill-rule="evenodd">
        <path d="M21.8 20.8H6.2c-.33 0-.6.27-.6.6v1.2c0 .33.27.6.6.6h15.6c.33 0 .6-.27.6-.6v-1.2c0-.33-.27-.6-.6-.6zm2.4-12a1.8 1.8 0 0 0-1.8 1.8c0 .266.06.514.165.742L19.85 12.97a1.198 1.198 0 0 1-1.658-.435l-3.056-5.348c.402-.33.664-.825.664-1.387a1.8 1.8 0 0 0-3.6 0c0 .563.263 1.058.664 1.388l-3.057 5.347a1.2 1.2 0 0 1-1.657.435l-2.711-1.628c.101-.225.165-.476.165-.742a1.8 1.8 0 0 0-1.8-1.8 1.8 1.8 0 1 0-.004 3.6c.098 0 .195-.015.289-.03L6.8 19.6h14.4l2.711-7.23c.094.015.191.03.289.03a1.8 1.8 0 0 0 0-3.6z" fill="#FFE20C" fill-rule="nonzero"/>
        <path d="M0 0h28v28H0z"/>
    </g>
</svg>
